<mxfile host="app.diagrams.net" modified="2022-11-25T17:30:53.099Z" agent="5.0 (Windows NT 10.0; Win64; x64) AppleWebKit/537.36 (KHTML, like Gecko) Chrome/107.0.0.0 Safari/537.36" etag="j_PhFe_gQ6G110hn0VXW" version="20.2.7" type="github">
  <diagram id="YwmyZTnuJxODA6Y0RdUc" name="第 1 页">
    <mxGraphModel dx="970" dy="536" grid="1" gridSize="10" guides="1" tooltips="1" connect="1" arrows="1" fold="1" page="1" pageScale="1" pageWidth="827" pageHeight="1169" math="0" shadow="0">
      <root>
        <mxCell id="0" />
        <mxCell id="1" parent="0" />
        <mxCell id="M4hbt9wP-p7dl2HIT-wz-3" value="" style="edgeStyle=orthogonalEdgeStyle;rounded=0;orthogonalLoop=1;jettySize=auto;html=1;" edge="1" parent="1" source="M4hbt9wP-p7dl2HIT-wz-1" target="M4hbt9wP-p7dl2HIT-wz-2">
          <mxGeometry relative="1" as="geometry" />
        </mxCell>
        <mxCell id="M4hbt9wP-p7dl2HIT-wz-1" value="pcf_cpct.v" style="rounded=0;whiteSpace=wrap;html=1;" vertex="1" parent="1">
          <mxGeometry x="120" y="210" width="100" height="40" as="geometry" />
        </mxCell>
        <mxCell id="M4hbt9wP-p7dl2HIT-wz-5" value="" style="edgeStyle=orthogonalEdgeStyle;rounded=0;orthogonalLoop=1;jettySize=auto;html=1;" edge="1" parent="1" source="M4hbt9wP-p7dl2HIT-wz-2" target="M4hbt9wP-p7dl2HIT-wz-4">
          <mxGeometry relative="1" as="geometry" />
        </mxCell>
        <mxCell id="M4hbt9wP-p7dl2HIT-wz-2" value="cps_cpct.v" style="whiteSpace=wrap;html=1;rounded=0;" vertex="1" parent="1">
          <mxGeometry x="280" y="210" width="100" height="40" as="geometry" />
        </mxCell>
        <mxCell id="M4hbt9wP-p7dl2HIT-wz-4" value="SSA.v" style="whiteSpace=wrap;html=1;rounded=0;" vertex="1" parent="1">
          <mxGeometry x="440" y="210" width="100" height="40" as="geometry" />
        </mxCell>
        <mxCell id="M4hbt9wP-p7dl2HIT-wz-7" value="" style="edgeStyle=orthogonalEdgeStyle;rounded=0;orthogonalLoop=1;jettySize=auto;html=1;" edge="1" parent="1" source="M4hbt9wP-p7dl2HIT-wz-6" target="M4hbt9wP-p7dl2HIT-wz-2">
          <mxGeometry relative="1" as="geometry">
            <Array as="points">
              <mxPoint x="250" y="230" />
            </Array>
          </mxGeometry>
        </mxCell>
        <mxCell id="M4hbt9wP-p7dl2HIT-wz-6" value="pcf2cps_cpct.v" style="ellipse;whiteSpace=wrap;html=1;" vertex="1" parent="1">
          <mxGeometry x="190" y="130" width="120" height="50" as="geometry" />
        </mxCell>
        <mxCell id="M4hbt9wP-p7dl2HIT-wz-8" value="" style="rounded=0;whiteSpace=wrap;html=1;fillColor=none;" vertex="1" parent="1">
          <mxGeometry x="95" y="80" width="310" height="190" as="geometry" />
        </mxCell>
        <mxCell id="M4hbt9wP-p7dl2HIT-wz-9" value="pcffront" style="text;html=1;strokeColor=none;fillColor=none;align=center;verticalAlign=middle;whiteSpace=wrap;rounded=0;" vertex="1" parent="1">
          <mxGeometry x="220" y="90" width="60" height="30" as="geometry" />
        </mxCell>
        <mxCell id="M4hbt9wP-p7dl2HIT-wz-10" value="" style="rounded=0;whiteSpace=wrap;html=1;fillColor=none;" vertex="1" parent="1">
          <mxGeometry x="430" y="160" width="130" height="110" as="geometry" />
        </mxCell>
        <mxCell id="M4hbt9wP-p7dl2HIT-wz-11" value="midend" style="text;html=1;strokeColor=none;fillColor=none;align=center;verticalAlign=middle;whiteSpace=wrap;rounded=0;" vertex="1" parent="1">
          <mxGeometry x="465" y="170" width="60" height="30" as="geometry" />
        </mxCell>
      </root>
    </mxGraphModel>
  </diagram>
</mxfile>
